<?xml version="1.0" encoding="UTF-8"?>
<svg version="1.1" xmlns="http://www.w3.org/2000/svg" width="225" height="225">
<path d="M0 0 C74.25 0 148.5 0 225 0 C225 74.25 225 148.5 225 225 C150.75 225 76.5 225 0 225 C0 150.75 0 76.5 0 0 Z " fill="#002F57" transform="translate(0,0)"/>
<path d="M0 0 C4.46906697 1.19175119 9.44192319 2.1540384 13.75 0 C16.93153799 -0.24068851 20.12287027 -0.18520695 23.3125 -0.1875 C24.18197266 -0.19974609 25.05144531 -0.21199219 25.94726562 -0.22460938 C31.17386142 -0.23630198 35.83104867 0.27201855 40.87963867 1.6484375 C43.63173872 2.16573603 45.32498732 1.2798678 47.75 0 C51.45873712 -0.92718428 54.93408411 -1.13473448 58.75 -1.125 C60.2659375 -1.12886719 60.2659375 -1.12886719 61.8125 -1.1328125 C64.56714744 -1.00826727 67.06838803 -0.62110865 69.75 0 C66.56316106 4.37691162 62.93420301 7.47787785 58.6875 10.75 C58.06294922 11.24371094 57.43839844 11.73742187 56.79492188 12.24609375 C54.1402844 14.3142745 51.96573842 15.92808719 48.75 17 C49.19472656 17.556875 49.63945312 18.11375 50.09765625 18.6875 C55.30017777 25.703201 55.30017777 25.703201 54.875 30.25 C53.49403097 34.8532301 51.82693611 37.49601178 47.9375 40.3125 C44.68315587 41.33529387 42.14535546 41.35124367 38.75 41 C35.3125 39 35.3125 39 32.75 37 C32.93828772 39.44480079 32.93828772 39.44480079 33.75 42 C38.08673256 44.823242 42.7618918 44.75205324 47.75 44 C51.49934208 42.31349297 53.98883915 39.85937515 56.6875 36.8125 C59.02832572 30.61619661 58.29283401 24.03923078 55.75 18 C57.125 16.5 57.125 16.5 58.75 15 C59.41 15 60.07 15 60.75 15 C64.60955077 21.39238096 65.91116599 26.54572903 64.75 34 C62.61667756 41.12816872 59.15730881 45.13348121 52.8359375 48.94140625 C49.07148028 50.85183304 46.83845281 50.90695897 42.75 50.4375 C38.01590893 50.33005067 35.61109646 51.43365401 32.04882812 54.57446289 C29.87998706 56.65459807 27.78831075 58.79215857 25.75 61 C24.47689688 60.06558465 23.206612 59.12732889 21.9375 58.1875 C21.22980469 57.66542969 20.52210937 57.14335938 19.79296875 56.60546875 C17.75 55 17.75 55 16.37109375 53.32421875 C13.9160487 51.31877231 11.74436049 51.66187187 8.625 51.625 C1.23406004 51.18927161 -4.00556614 49.51880459 -9.09765625 43.99609375 C-14.74432422 36.74753416 -15.04975886 30.06739587 -14.25 21 C-13.20165555 18.35853821 -12.2161526 17.08903714 -10.25 15 C-8.93 15.99 -7.61 16.98 -6.25 18 C-6.40855469 18.71285156 -6.56710938 19.42570312 -6.73046875 20.16015625 C-7.83840853 26.21633835 -8.29189286 31.91621428 -5.5 37.5 C-2.40391528 40.94009413 0.07699975 43.35097219 4.75 44 C10.16404089 44.23604519 10.16404089 44.23604519 15.375 43.125 C16.550625 43.063125 16.550625 43.063125 17.75 43 C19.73 44.98 21.71 46.96 23.75 49 C23.75 39.76 23.75 30.52 23.75 21 C22.1 21 20.45 21 18.75 21 C18.73582031 21.95261719 18.72164062 22.90523437 18.70703125 23.88671875 C18.26883978 35.40997001 18.26883978 35.40997001 15.375 38.3125 C11.10788299 41.05564665 7.76887056 41.51039362 2.75 41 C-0.22551795 39.22396702 -2.67755188 37.14489623 -4.25 34 C-4.9346995 28.64956244 -4.99051513 24.35130479 -1.75 19.875 C-0.925 18.92625 -0.1 17.9775 0.75 17 C0.23566406 16.78085938 -0.27867188 16.56171875 -0.80859375 16.3359375 C-4.25837679 14.44821622 -7.23103644 12.05689232 -10.3125 9.625 C-10.93705078 9.14289062 -11.56160156 8.66078125 -12.20507812 8.1640625 C-15.35722807 5.68809414 -18.04637443 3.40633696 -20.25 0 C-13.86282142 -1.90094601 -6.40008836 -1.79050091 0 0 Z " fill="#F3F7F9" transform="translate(88.25,54)"/>
<path d="M0 0 C2.47923801 -0.02685095 4.9581884 -0.04676547 7.4375 -0.0625 C8.14455078 -0.07087891 8.85160156 -0.07925781 9.58007812 -0.08789062 C11.38693559 -0.09653588 13.19387603 -0.05220011 15 0 C16 1 16 1 16.0625 3.5625 C16.041875 4.366875 16.02125 5.17125 16 6 C15.01 6.33 14.02 6.66 13 7 C12.06964573 9.05287519 12.06964573 9.05287519 11.5 11.59375 C11.2525 12.5425 11.005 13.49125 10.75 14.46875 C10.5025 15.4690625 10.255 16.469375 10 17.5 C9.5024964 19.44855575 9.00252075 21.39648211 8.5 23.34375 C8.25636719 24.28992188 8.01273438 25.23609375 7.76171875 26.2109375 C6.67150307 30.20280415 5.3567299 34.09132576 4 38 C0.7 38 -2.6 38 -6 38 C-7.65 32.06 -9.3 26.12 -11 20 C-11.639375 22.041875 -12.27875 24.08375 -12.9375 26.1875 C-13.29714844 27.33605469 -13.65679687 28.48460937 -14.02734375 29.66796875 C-15.12468161 33.24850829 -15.12468161 33.24850829 -16 38 C-19.63 38 -23.26 38 -27 38 C-27.7746551 35.27186681 -28.54535868 32.54274887 -29.3125 29.8125 C-29.54179199 28.99982666 -29.77108398 28.18715332 -30.00732422 27.34985352 C-31.67273052 21.37401843 -33.05499866 15.40224722 -34.2265625 9.30859375 C-34.60941406 8.16583984 -34.60941406 8.16583984 -35 7 C-35.99 6.67 -36.98 6.34 -38 6 C-38 4.35 -38 2.7 -38 1 C-32.39 1 -26.78 1 -21 1 C-21 2.65 -21 4.3 -21 6 C-21.99 6 -22.98 6 -24 6 C-23.7834375 6.79664063 -23.566875 7.59328125 -23.34375 8.4140625 C-23.0653125 9.47367188 -22.786875 10.53328125 -22.5 11.625 C-22.2215625 12.66914063 -21.943125 13.71328125 -21.65625 14.7890625 C-21.00881404 17.95687418 -20.8838708 20.77741467 -21 24 C-20.34 24 -19.68 24 -19 24 C-18.9175 22.989375 -18.835 21.97875 -18.75 20.9375 C-17.92771702 14.15059716 -15.83898541 7.56902694 -14 1 C-11.36 1 -8.72 1 -6 1 C-4.02 7.93 -2.04 14.86 0 22 C0.495 20.081875 0.99 18.16375 1.5 16.1875 C1.7784375 15.10855469 2.056875 14.02960938 2.34375 12.91796875 C3.10970948 10.01066025 3.10970948 10.01066025 3 7 C2.01 6.67 1.02 6.34 0 6 C0 4.02 0 2.04 0 0 Z " fill="#F2F6F8" transform="translate(86,128)"/>
<path d="M0 0 C0.92232422 0.01804687 1.84464844 0.03609375 2.79492188 0.0546875 C5.05123597 0.10145049 7.30700916 0.17318101 9.5625 0.25 C9.5625 4.54 9.5625 8.83 9.5625 13.25 C7.22955225 13.29241723 4.89547433 13.29092937 2.5625 13.25 C1.5625 12.25 1.5625 12.25 1.5 9.6875 C1.520625 8.883125 1.54125 8.07875 1.5625 7.25 C-0.06502231 7.50523874 -1.68953196 7.77974494 -3.3125 8.0625 C-4.21742187 8.21332031 -5.12234375 8.36414063 -6.0546875 8.51953125 C-8.78162478 9.08051301 -8.78162478 9.08051301 -10.4375 12.25 C-10.75647173 15.54555649 -10.75647173 15.54555649 -10.6875 19.1875 C-10.69265625 20.41339844 -10.6978125 21.63929688 -10.703125 22.90234375 C-10.39576691 26.90389823 -10.39576691 26.90389823 -8.4375 30.25 C-5.75959537 31.08886169 -3.2637059 31.06766414 -0.4375 31.25 C-0.4375 29.27 -0.4375 27.29 -0.4375 25.25 C-1.4275 25.25 -2.4175 25.25 -3.4375 25.25 C-3.4375 23.27 -3.4375 21.29 -3.4375 19.25 C1.8425 19.25 7.1225 19.25 12.5625 19.25 C12.5625 21.23 12.5625 23.21 12.5625 25.25 C11.5725 25.25 10.5825 25.25 9.5625 25.25 C9.5625 29.54 9.5625 33.83 9.5625 38.25 C6.39489276 38.35881094 3.23108879 38.43769629 0.0625 38.5 C-1.2678125 38.55027344 -1.2678125 38.55027344 -2.625 38.6015625 C-8.67786337 38.6905752 -13.47190723 37.90406751 -18.4375 34.25 C-23.00278683 28.78079741 -23.10465071 22.50812546 -22.8828125 15.6015625 C-22.25998785 10.91398748 -20.92825213 7.4875767 -17.4375 4.25 C-11.58716229 0.01302862 -7.09887025 -0.26576044 0 0 Z " fill="#EDF2F6" transform="translate(122.4375,127.75)"/>
<path d="M0 0 C4.95 0 9.9 0 15 0 C15 1.98 15 3.96 15 6 C14.01 6 13.02 6 12 6 C12.01571045 6.63502441 12.0314209 7.27004883 12.04760742 7.92431641 C12.1102859 10.8244523 12.14909417 13.72444524 12.1875 16.625 C12.21263672 17.62402344 12.23777344 18.62304688 12.26367188 19.65234375 C12.3187751 25.19940183 12.20285788 29.2414683 9 34 C4.36828613 38.51295197 0.03905751 38.41491709 -6.09765625 38.3359375 C-11.34554102 37.72851073 -14.58441684 36.02550873 -18 32 C-18.9731681 29.0804957 -19.1929546 26.94555049 -19.31640625 23.89453125 C-19.35830078 22.91162109 -19.40019531 21.92871094 -19.44335938 20.91601562 C-19.48267578 19.89185547 -19.52199219 18.86769531 -19.5625 17.8125 C-19.60568359 16.77673828 -19.64886719 15.74097656 -19.69335938 14.67382812 C-19.79944366 12.1160181 -19.90150146 9.55811155 -20 7 C-20.66 6.67 -21.32 6.34 -22 6 C-22 4.35 -22 2.7 -22 1 C-16.39 1 -10.78 1 -5 1 C-5 2.65 -5 4.3 -5 6 C-6.32 6 -7.64 6 -9 6 C-8.86152362 9.62532066 -8.71297357 13.25015904 -8.5625 16.875 C-8.52318359 17.90753906 -8.48386719 18.94007813 -8.44335938 20.00390625 C-8.38051758 21.48310547 -8.38051758 21.48310547 -8.31640625 22.9921875 C-8.27974854 23.90339355 -8.24309082 24.81459961 -8.20532227 25.75341797 C-8.13422935 28.03483481 -8.13422935 28.03483481 -7 30 C-4.03 30 -1.06 30 2 30 C3.23060421 27.53879159 3.2057723 25.74223134 3.31640625 22.9921875 C3.35830078 22.00605469 3.40019531 21.01992187 3.44335938 20.00390625 C3.48267578 18.97136719 3.52199219 17.93882812 3.5625 16.875 C3.60568359 15.83472656 3.64886719 14.79445312 3.69335938 13.72265625 C3.7996288 11.14857472 3.90166583 8.57439492 4 6 C2.68 6 1.36 6 0 6 C0 4.02 0 2.04 0 0 Z " fill="#F4F8FA" transform="translate(157,128)"/>
<path d="M0 0 C-0.33 0.99 -0.66 1.98 -1 3 C1.31 3.33 3.62 3.66 6 4 C5.34 5.32 4.68 6.64 4 8 C2.35 8 0.7 8 -1 8 C-1 8.66 -1 9.32 -1 10 C-1.66 10 -2.32 10 -3 10 C-4.2236068 12.0745356 -4.2236068 12.0745356 -4 15 C-2.68 14.67 -1.36 14.34 0 14 C0 16 0 18 0 20 C1.65 20.33 3.3 20.66 5 21 C4.34 21.99 3.68 22.98 3 24 C3.30840599 26.15274948 3.30840599 26.15274948 4 28 C5.32 28.33 6.64 28.66 8 29 C8.495 27.515 8.495 27.515 9 26 C11 24 11 24 13 23 C13.33 22.34 13.66 21.68 14 21 C14.7839267 32.89826518 14.7839267 32.89826518 11.6875 37.25 C7.39600826 40.04445974 4.06810378 40.51540038 -1 40 C-3.97551795 38.22396702 -6.42755188 36.14489623 -8 33 C-8.6846995 27.64956244 -8.74051513 23.35130479 -5.5 18.875 C-4.675 17.92625 -3.85 16.9775 -3 16 C-3.51433594 15.78085938 -4.02867188 15.56171875 -4.55859375 15.3359375 C-8.00837679 13.44821622 -10.98103644 11.05689232 -14.0625 8.625 C-14.68705078 8.14289062 -15.31160156 7.66078125 -15.95507812 7.1640625 C-19.10722807 4.68809414 -21.79637443 2.40633696 -24 -1 C-16.1526777 -3.33551259 -7.70247578 -2.36999255 0 0 Z " fill="#F1F6F8" transform="translate(92,55)"/>
<path d="M0 0 C2.47923801 -0.02685095 4.9581884 -0.04676547 7.4375 -0.0625 C8.14455078 -0.07087891 8.85160156 -0.07925781 9.58007812 -0.08789062 C11.38693559 -0.09653588 13.19387603 -0.05220011 15 0 C16 1 16 1 16.0625 3.5625 C16.041875 4.366875 16.02125 5.17125 16 6 C15.01 6.33 14.02 6.66 13 7 C12.06964573 9.05287519 12.06964573 9.05287519 11.5 11.59375 C11.2525 12.5425 11.005 13.49125 10.75 14.46875 C10.5025 15.4690625 10.255 16.469375 10 17.5 C9.5024964 19.44855575 9.00252075 21.39648211 8.5 23.34375 C8.25636719 24.28992188 8.01273438 25.23609375 7.76171875 26.2109375 C6.67150307 30.20280415 5.3567299 34.09132576 4 38 C0.7 38 -2.6 38 -6 38 C-7.98 31.07 -9.96 24.14 -12 17 C-11.01 16.67 -10.02 16.34 -9 16 C-9 16.66 -9 17.32 -9 18 C-8.34 18 -7.68 18 -7 18 C-5.86642725 14.67485327 -4.8530248 11.4120992 -4 8 C-2.68 12.62 -1.36 17.24 0 22 C0.495 20.081875 0.99 18.16375 1.5 16.1875 C1.91765625 14.56908203 1.91765625 14.56908203 2.34375 12.91796875 C3.10970948 10.01066025 3.10970948 10.01066025 3 7 C2.01 6.67 1.02 6.34 0 6 C0 4.02 0 2.04 0 0 Z " fill="#F0F5F7" transform="translate(86,128)"/>
<path d="M0 0 C2.125 0.9375 2.125 0.9375 4 2 C2.79618552 4.49361571 1.54571278 6.68143083 0 9 C-0.71207438 13.88516144 -0.72852643 17.8100735 1.875 22.0625 C4.61368015 24.5595319 5.50513267 24.96193328 9.25 25.25 C13.28493359 24.98100443 15.58516419 24.11394598 19 22 C20.93588407 18.12823186 20.47609565 13.35796042 20.71875 9.08984375 C21 6 21 6 22 5 C24.5 4.875 24.5 4.875 27 5 C28 6 28 6 28.11352539 8.77563477 C28.10828857 9.98533936 28.10305176 11.19504395 28.09765625 12.44140625 C28.09443359 13.74658203 28.09121094 15.05175781 28.08789062 16.39648438 C28.07953401 17.7851569 28.07106905 19.17382877 28.0625 20.5625 C28.05748666 21.95507656 28.05292347 23.34765481 28.04882812 24.74023438 C28.03699434 28.1601987 28.0205088 31.58007844 28 35 C27.52296631 34.5654248 27.04593262 34.13084961 26.55444336 33.68310547 C25.92675049 33.12510254 25.29905762 32.56709961 24.65234375 31.9921875 C24.03093506 31.4338623 23.40952637 30.87553711 22.76928711 30.30029297 C21.0376877 28.7403616 21.0376877 28.7403616 18.5625 29.125 C17.716875 29.41375 16.87125 29.7025 16 30 C10.12395713 30.37909954 6.26139077 29.97814572 1 27 C-3.20842863 22.92206528 -5.1533672 19.65073169 -5.25 13.8125 C-5.21004535 8.74491833 -4.48824701 5.40228317 -2 1 C-1.34 0.67 -0.68 0.34 0 0 Z " fill="#113252" transform="translate(85,69)"/>
<path d="M0 0 C5.61 0 11.22 0 17 0 C17 1.65 17 3.3 17 5 C15.68 5 14.36 5 13 5 C13.00523682 5.71655762 13.01047363 6.43311523 13.01586914 7.17138672 C13.03660667 10.40591562 13.04964984 13.64043056 13.0625 16.875 C13.07087891 18.00292969 13.07925781 19.13085938 13.08789062 20.29296875 C13.09111328 21.36933594 13.09433594 22.44570312 13.09765625 23.5546875 C13.10289307 24.54968262 13.10812988 25.54467773 13.11352539 26.56982422 C13 29 13 29 12 31 C14.31 31 16.62 31 19 31 C19 31.66 19 32.32 19 33 C17.67653254 33.37057089 16.33917261 33.69096017 15 34 C13.845 34.268125 12.69 34.53625 11.5 34.8125 C8 35 8 35 5.625 33.25 C3.15674585 29.83241733 2.84958199 26.99681209 2.68359375 22.89453125 C2.64169922 21.91162109 2.59980469 20.92871094 2.55664062 19.91601562 C2.51732422 18.89185547 2.47800781 17.86769531 2.4375 16.8125 C2.39431641 15.77673828 2.35113281 14.74097656 2.30664062 13.67382812 C2.20055634 11.1160181 2.09849854 8.55811155 2 6 C1.34 5.67 0.68 5.34 0 5 C0 3.35 0 1.7 0 0 Z " fill="#F5FAFB" transform="translate(135,129)"/>
<path d="M0 0 C6.07216495 5.75257732 6.07216495 5.75257732 7 9 C6.81924144 14.69389465 6.22322861 17.89743507 2 22 C-1.48664451 24.52481154 -4.79751118 24.43474022 -9 24 C-12.4375 22 -12.4375 22 -15 20 C-14.01 18.515 -14.01 18.515 -13 17 C-12.67287763 14.71428423 -12.5605032 12.46135232 -12.44140625 10.15625 C-11.90312564 7.52677306 -11.12565374 6.60186825 -9 5 C-6.3125 4.8125 -6.3125 4.8125 -4 5 C-4.33 7.31 -4.66 9.62 -5 12 C-3.68 12.33 -2.36 12.66 -1 13 C0.32 11.35 1.64 9.7 3 8 C1.68 7.01 0.36 6.02 -1 5 C-0.67 3.35 -0.34 1.7 0 0 Z " fill="#E1ECF2" transform="translate(136,71)"/>
<path d="M0 0 C1.03039555 4.53374042 1.17766075 5.64467851 -1 10 C2.3 10.33 5.6 10.66 9 11 C9 11.33 9 11.66 9 12 C4.38 12 -0.24 12 -5 12 C-5 13.98 -5 15.96 -5 18 C-4.01 18 -3.02 18 -2 18 C-2 19.98 -2 21.96 -2 24 C-7.95703125 24.48828125 -7.95703125 24.48828125 -10 24 C-13.96853611 19.22521502 -13.55558721 14.20959153 -13.40625 8.2734375 C-13 5 -13 5 -11 1.625 C-6.9834661 -0.55062253 -4.52005942 -0.38305588 0 0 Z " fill="#09294D" transform="translate(124,135)"/>
<path d="M0 0 C-0.99 1.485 -0.99 1.485 -2 3 C-1.69159401 5.15274948 -1.69159401 5.15274948 -1 7 C0.32 7.33 1.64 7.66 3 8 C3.33 7.01 3.66 6.02 4 5 C6 3 6 3 8 2 C8.33 1.34 8.66 0.68 9 0 C9.7839267 11.89826518 9.7839267 11.89826518 6.6875 16.25 C2.40637003 19.03771254 -0.94209447 19.52323161 -6 19 C-8.9375 16.5 -8.9375 16.5 -11 14 C-9.35 14 -7.7 14 -6 14 C-6.515625 13.29875 -7.03125 12.5975 -7.5625 11.875 C-9.33603072 8.32793857 -9.14147004 6.7505444 -8 3 C-5.78818899 -0.31771652 -3.83294873 -0.31077963 0 0 Z " fill="#E0EAF2" transform="translate(97,76)"/>
<path d="M0 0 C0.7425 0.391875 1.485 0.78375 2.25 1.1875 C1.940625 2.05375 1.940625 2.05375 1.625 2.9375 C1.01977856 5.18982939 1.01977856 5.18982939 2.1953125 7.03125 C4.11722877 10.96050103 3.98328323 14.93445726 3.25 19.1875 C0.86381507 23.9359282 -2.68006486 28.34388722 -7.75 30.1875 C-12.84567261 30.8640683 -16.6519572 30.67972608 -21.375 28.5625 C-23.75 26.1875 -23.75 26.1875 -24.125 22.9375 C-23.939375 21.57625 -23.939375 21.57625 -23.75 20.1875 C-22.96625 20.826875 -22.1825 21.46625 -21.375 22.125 C-17.28624167 25.33759583 -14.97636279 25.62303023 -9.75 25.1875 C-6.35450873 23.45772143 -4.32940666 22.11958897 -2.3125 18.875 C-1.56152657 15.28701584 -1.86119175 12.74273301 -2.75 9.1875 C-4.71509909 6.4174003 -4.71509909 6.4174003 -6.75 4.1875 C-6.75 2.1875 -6.75 2.1875 -5.0625 0.4375 C-2.75 -0.8125 -2.75 -0.8125 0 0 Z " fill="#173250" transform="translate(143.75,68.8125)"/>
<path d="M0 0 C6.6 0 13.2 0 20 0 C20 4.29 20 8.58 20 13 C17.66705225 13.04241723 15.33297433 13.04092937 13 13 C12 12 12 12 11.9375 9.4375 C11.958125 8.633125 11.97875 7.82875 12 7 C9.03 7 6.06 7 3 7 C2.67 6.34 2.34 5.68 2 5 C1.34 5 0.68 5 0 5 C-0.33 4.01 -0.66 3.02 -1 2 C-0.67 1.34 -0.34 0.68 0 0 Z " fill="#ECF1F7" transform="translate(112,128)"/>
<path d="M0 0 C4.95 0 9.9 0 15 0 C15 1.98 15 3.96 15 6 C14.01 6 13.02 6 12 6 C12 13.26 12 20.52 12 28 C11.67 28 11.34 28 11 28 C10.67 21.4 10.34 14.8 10 8 C8.35 7.67 6.7 7.34 5 7 C3.33333333 6.66666667 1.66666667 6.33333333 0 6 C0 4.02 0 2.04 0 0 Z " fill="#D2DBE5" transform="translate(157,128)"/>
<path d="M0 0 C2.47923801 -0.02685095 4.9581884 -0.04676547 7.4375 -0.0625 C8.14455078 -0.07087891 8.85160156 -0.07925781 9.58007812 -0.08789062 C11.38693559 -0.09653588 13.19387603 -0.05220011 15 0 C16 1 16 1 16.0625 3.5625 C16.041875 4.366875 16.02125 5.17125 16 6 C9.375 9 9.375 9 6 9 C5.67 8.34 5.34 7.68 5 7 C2.47266765 6.34444881 2.47266765 6.34444881 0 6 C0 4.02 0 2.04 0 0 Z " fill="#EFF5F8" transform="translate(86,128)"/>
<path d="M0 0 C-0.33 2.31 -0.66 4.62 -1 7 C0.84725052 7.69159401 0.84725052 7.69159401 3 8 C3.99 7.34 4.98 6.68 6 6 C5.67372714 9.01802393 5.38918764 10.59691281 3.25 12.8125 C0.50115446 14.26327959 -0.93447101 14.53646757 -4 14 C-6.3125 12.4375 -6.3125 12.4375 -8 10 C-8.43180709 6.48385658 -8.69643714 4.13629218 -6.8125 1.0625 C-4.43958382 -0.32851983 -2.70313576 -0.21917317 0 0 Z " fill="#042F58" transform="translate(132,76)"/>
<path d="M0 0 C-0.99 1.485 -0.99 1.485 -2 3 C-1.69159401 5.15274948 -1.69159401 5.15274948 -1 7 C2.04913228 8.01111093 2.04913228 8.01111093 5 7 C4.51812367 11.57782516 4.51812367 11.57782516 2.3125 13.375 C-0.84216383 14.22761185 -2.87707809 13.93023206 -6 13 C-7.9375 11.3125 -7.9375 11.3125 -9 9 C-8.87046154 5.82630784 -8.51878767 3.77818151 -6.75 1.125 C-4.41786614 -0.37422891 -2.71628175 -0.22023906 0 0 Z " fill="#25405E" transform="translate(97,76)"/>
<path d="M0 0 C0.99 0.33 1.98 0.66 3 1 C3 1.66 3 2.32 3 3 C3.66 3 4.32 3 5 3 C6.04940487 6.14821462 5.98606526 6.9349491 5.22265625 10.01171875 C5.03896484 10.76904297 4.85527344 11.52636719 4.66601562 12.30664062 C4.46685547 13.09232422 4.26769531 13.87800781 4.0625 14.6875 C3.86720703 15.48478516 3.67191406 16.28207031 3.47070312 17.10351562 C2.98771618 19.07080389 2.4948037 21.03565054 2 23 C1.34 23 0.68 23 0 23 C-0.50509208 20.75113762 -1.00389179 18.50086131 -1.5 16.25 C-1.7784375 14.99703125 -2.056875 13.7440625 -2.34375 12.453125 C-3 9 -3 9 -3 5 C-2.01 5 -1.02 5 0 5 C0 3.35 0 1.7 0 0 Z " fill="#0D3150" transform="translate(65,129)"/>
<path d="M0 0 C5.94 0 11.88 0 18 0 C18 0.33 18 0.66 18 1 C12.39 1 6.78 1 1 1 C1 2.65 1 4.3 1 6 C1.66 6.33 2.32 6.66 3 7 C2.67 8.65 2.34 10.3 2 12 C1.01 11.67 0.02 11.34 -1 11 C-1 11.66 -1 12.32 -1 13 C-0.34 13 0.32 13 1 13 C1.33 14.65 1.66 16.3 2 18 C-1.3111013 19.10370043 -3.24748949 18.92673641 -6.6875 18.5625 C-7.68136719 18.46066406 -8.67523438 18.35882813 -9.69921875 18.25390625 C-10.45847656 18.17011719 -11.21773438 18.08632812 -12 18 C-11.67 16.35 -11.34 14.7 -11 13 C-8.03 13 -5.06 13 -2 13 C-1.34 8.71 -0.68 4.42 0 0 Z " fill="#2B4B6A" transform="translate(134,128)"/>
<path d="M0 0 C0.66 0 1.32 0 2 0 C2.33 7.59 2.66 15.18 3 23 C1.02 23.99 1.02 23.99 -1 25 C-2.64079242 26.64079242 -2.60112342 28.77768765 -3 31 C-3.33 31 -3.66 31 -4 31 C-4 26.71 -4 22.42 -4 18 C-3.01 18 -2.02 18 -1 18 C-1 14.04 -1 10.08 -1 6 C-1.66 6 -2.32 6 -3 6 C-3 5.34 -3 4.68 -3 4 C-2.34 3.67 -1.68 3.34 -1 3 C-0.67 2.01 -0.34 1.02 0 0 Z " fill="#143353" transform="translate(136,135)"/>
<path d="M0 0 C0.38800781 0.49113281 0.77601563 0.98226562 1.17578125 1.48828125 C3.61211696 3.50725753 5.06930672 3.30898805 8.1875 3.1875 C9.08855469 3.16042969 9.98960937 3.13335937 10.91796875 3.10546875 C11.60503906 3.07066406 12.29210937 3.03585938 13 3 C13.66 5.31 14.32 7.62 15 10 C12.30335792 11.34832104 10.13412479 11.16910682 7.125 11.1875 C6.07570312 11.20167969 5.02640625 11.21585938 3.9453125 11.23046875 C1.06452929 11.00504937 -0.56240208 10.48964317 -3 9 C-0.66785852 7.79371992 1.49642139 6.8345262 4 6 C4.99 6.33 5.98 6.66 7 7 C7 6.34 7 5.68 7 5 C4.69 5 2.38 5 0 5 C0 3.35 0 1.7 0 0 Z " fill="#E2ECF2" transform="translate(147,155)"/>
<path d="M0 0 C0.33 0 0.66 0 1 0 C1 1.98 1 3.96 1 6 C2.32 6.33 3.64 6.66 5 7 C3.07289294 18.52164009 3.07289294 18.52164009 1 24 C-2.24855436 17.94151464 -3.73426427 11.76363065 -2 5 C-1.34 5 -0.68 5 0 5 C0 3.35 0 1.7 0 0 Z " fill="#0C294A" transform="translate(85,128)"/>
<path d="M0 0 C2.125 0.9375 2.125 0.9375 4 2 C2.79618552 4.49361571 1.54571278 6.68143083 0 9 C-0.09782036 11.82403124 0.06722219 14.58569044 0.22265625 17.40625 C0 20 0 20 -1.50390625 21.84375 C-1.99761719 22.2253125 -2.49132812 22.606875 -3 23 C-5.82027999 18.20215316 -5.51180717 13.41598928 -5 8 C-4.27452719 5.31809082 -3.38402064 3.44865189 -2 1 C-1.34 0.67 -0.68 0.34 0 0 Z " fill="#1C3C59" transform="translate(85,69)"/>
<path d="M0 0 C1.32 0.66 2.64 1.32 4 2 C3.34 2 2.68 2 2 2 C2 2.66 2 3.32 2 4 C2.99 4.66 3.98 5.32 5 6 C4.01 6.33 3.02 6.66 2 7 C2.61488281 7.54269531 3.22976562 8.08539063 3.86328125 8.64453125 C5.07564453 9.71767578 5.07564453 9.71767578 6.3125 10.8125 C7.11300781 11.52019531 7.91351563 12.22789063 8.73828125 12.95703125 C10.54983162 14.59337122 12.29681703 16.25272168 14 18 C9.15473202 17.40670188 4.68367489 16.35106007 0 15 C-0.99 15 -1.98 15 -3 15 C-2.67 14.4225 -2.34 13.845 -2 13.25 C-0.72924102 10.80116138 -0.72924102 10.80116138 -1 7 C-1 3 -1 3 0 0 Z " fill="#0D365A" transform="translate(67,48)"/>
<path d="M0 0 C0.66 0 1.32 0 2 0 C2 0.66 2 1.32 2 2 C3.32 1.34 4.64 0.68 6 0 C7.23697917 1.49739583 8.47395833 2.99479167 9.7109375 4.4921875 C10.75250992 5.71051161 11.86660097 6.86660097 13 8 C11.4221875 8.2165625 11.4221875 8.2165625 9.8125 8.4375 C6.22257768 8.91134702 6.22257768 8.91134702 3.625 9.5625 C-0.24529718 10.20754953 -4.08563531 10.07675225 -8 10 C-8 9.01 -8 8.02 -8 7 C-5.36 7.33 -2.72 7.66 0 8 C0 5.36 0 2.72 0 0 Z " fill="#062B51" transform="translate(133,158)"/>
<path d="M0 0 C1.24546405 2.49092811 0.7767578 3.41080733 0 6 C0.99 6 1.98 6 3 6 C3.33 5.34 3.66 4.68 4 4 C4 4.66 4 5.32 4 6 C5.98 6 7.96 6 10 6 C10 5.34 10 4.68 10 4 C10.66 4 11.32 4 12 4 C11.125 9.875 11.125 9.875 10 11 C8.31391034 11.07205511 6.62499341 11.08386068 4.9375 11.0625 C4.01839844 11.05347656 3.09929687 11.04445312 2.15234375 11.03515625 C1.44207031 11.02355469 0.73179688 11.01195312 0 11 C-0.38909985 9.54536519 -0.76088029 8.08608793 -1.125 6.625 C-1.33382812 5.81289062 -1.54265625 5.00078125 -1.7578125 4.1640625 C-1.83773437 3.44992188 -1.91765625 2.73578125 -2 2 C-1.34 1.34 -0.68 0.68 0 0 Z " fill="#E2ECF1" transform="translate(80,155)"/>
<path d="M0 0 C0.33 0 0.66 0 1 0 C1 9.57 1 19.14 1 29 C0.67 29 0.34 29 0 29 C0 25.37 0 21.74 0 18 C-0.66 18 -1.32 18 -2 18 C-2.33 18.66 -2.66 19.32 -3 20 C-3 18.35 -3 16.7 -3 15 C-3.33 15 -3.66 15 -4 15 C-4 11.04 -4 7.08 -4 3 C-3.01 3 -2.02 3 -1 3 C-0.67 2.01 -0.34 1.02 0 0 Z " fill="#224263" transform="translate(112,75)"/>
<path d="M0 0 C0 3 0 3 -1 6 C0.98 5.34 2.96 4.68 5 4 C5.625 6.375 5.625 6.375 6 9 C5.34 9.66 4.68 10.32 4 11 C4.32198966 14.09926819 4.32198966 14.09926819 5 17 C4.34 17 3.68 17 3 17 C2.67 17.66 2.34 18.32 2 19 C1.01 19 0.02 19 -1 19 C-0.34 16.36 0.32 13.72 1 11 C0.34 10.67 -0.32 10.34 -1 10 C-1 9.67 -1 9.34 -1 9 C-1.66 8.01 -2.32 7.02 -3 6 C-1.65517241 1.65517241 -1.65517241 1.65517241 0 0 Z " fill="#0E375C" transform="translate(114,136)"/>
<path d="M0 0 C1.65 0.33 3.3 0.66 5 1 C5 1.66 5 2.32 5 3 C5.62648437 2.97679687 6.25296875 2.95359375 6.8984375 2.9296875 C7.71570313 2.91164062 8.53296875 2.89359375 9.375 2.875 C10.18710938 2.85179687 10.99921875 2.82859375 11.8359375 2.8046875 C14 3 14 3 16 5 C15.39671875 5.13277344 14.7934375 5.26554687 14.171875 5.40234375 C12.97304687 5.66724609 12.97304687 5.66724609 11.75 5.9375 C10.56664062 6.19853516 10.56664062 6.19853516 9.359375 6.46484375 C7.86345021 6.8041512 6.37608442 7.18624346 4.90625 7.625 C1.96377841 8.20384687 -0.26479713 7.05678293 -3 6 C-2.34 5.67 -1.68 5.34 -1 5 C-1 4.34 -1 3.68 -1 3 C-0.34 2.67 0.32 2.34 1 2 C0.67 1.34 0.34 0.68 0 0 Z " fill="#14385A" transform="translate(125,49)"/>
<path d="M0 0 C2.97 0 5.94 0 9 0 C9 4.29 9 8.58 9 13 C6.66705225 13.04241723 4.33297433 13.04092937 2 13 C1 12 1 12 0.9375 9.4375 C0.958125 8.633125 0.97875 7.82875 1 7 C2.98 7 4.96 7 7 7 C7.33 5.02 7.66 3.04 8 1 C5.36 1 2.72 1 0 1 C0 0.67 0 0.34 0 0 Z " fill="#C0CCD8" transform="translate(123,128)"/>
<path d="M0 0 C1.65 0 3.3 0 5 0 C5 5.28 5 10.56 5 16 C4.67 16 4.34 16 4 16 C4 12.04 4 8.08 4 4 C3.01 4 2.02 4 1 4 C1 7.63 1 11.26 1 15 C0.34 15 -0.32 15 -1 15 C-1.02685412 12.68756208 -1.04632841 10.3750373 -1.0625 8.0625 C-1.07410156 6.77472656 -1.08570312 5.48695312 -1.09765625 4.16015625 C-1 1 -1 1 0 0 Z " fill="#102F50" transform="translate(107,74)"/>
<path d="M0 0 C1.89575251 -0.02721176 3.79161979 -0.04649136 5.6875 -0.0625 C6.74324219 -0.07410156 7.79898438 -0.08570313 8.88671875 -0.09765625 C11.72410262 -0.00865425 14.2438919 0.35060162 17 1 C14.61042731 4.24299151 12.7952131 6.50902342 9 8 C9 7.01 9 6.02 9 5 C7.68 5.99 6.36 6.98 5 8 C5 7.01 5 6.02 5 5 C5.99 4.34 6.98 3.68 8 3 C5.36 2.34 2.72 1.68 0 1 C0 0.67 0 0.34 0 0 Z " fill="#E2ECF4" transform="translate(141,53)"/>
<path d="M0 0 C7.39449541 0.59633028 7.39449541 0.59633028 11 3 C11 3.66 11 4.32 11 5 C10.34 5 9.68 5 9 5 C9 5.66 9 6.32 9 7 C6.525 6.01 6.525 6.01 4 5 C3.01 6.485 3.01 6.485 2 8 C1.34 8 0.68 8 0 8 C-0.38063221 5.6739143 -0.71269945 3.33944736 -1 1 C-0.67 0.67 -0.34 0.34 0 0 Z " fill="#0F2F51" transform="translate(74,65)"/>
<path d="M0 0 C0 0.99 0 1.98 0 3 C-2.64 3 -5.28 3 -8 3 C-8 3.66 -8 4.32 -8 5 C-8.99 5.33 -9.98 5.66 -11 6 C-11 5.34 -11 4.68 -11 4 C-12.65 4.33 -14.3 4.66 -16 5 C-16 5.66 -16 6.32 -16 7 C-17.32 6.67 -18.64 6.34 -20 6 C-14.31226898 -0.94937317 -8.54263183 -0.6936874 0 0 Z " fill="#113052" transform="translate(138,104)"/>
<path d="M0 0 C3 1 3 1 5 4 C7.31 3.34 9.62 2.68 12 2 C11.75 4.375 11.75 4.375 11 7 C9.25 8.375 9.25 8.375 7 9 C4.25 8.625 4.25 8.625 2 8 C2 7.34 2 6.68 2 6 C1.34 5.67 0.68 5.34 0 5 C0 3.35 0 1.7 0 0 Z " fill="#103253" transform="translate(90,81)"/>
<path d="M0 0 C0.99 1.32 1.98 2.64 3 4 C3.99 3.67 4.98 3.34 6 3 C5.125 8.75 5.125 8.75 4 11 C-0.75 9.125 -0.75 9.125 -3 8 C-1.125 2.25 -1.125 2.25 0 0 Z " fill="#FAFCFA" transform="translate(105,150)"/>
<path d="M0 0 C2.625 0.375 2.625 0.375 5 1 C5.33 1.99 5.66 2.98 6 4 C5.360625 4.433125 4.72125 4.86625 4.0625 5.3125 C1.73253997 6.91239177 1.73253997 6.91239177 1 10 C2.32 10.33 3.64 10.66 5 11 C3.1875 11.6875 3.1875 11.6875 1 12 C-0.8125 10.8125 -0.8125 10.8125 -2 9 C-1.74853421 6.86254078 -1.54074221 5.54074221 0 4 C-0.66 3.34 -1.32 2.68 -2 2 C-1.34 1.34 -0.68 0.68 0 0 Z " fill="#E3ECF0" transform="translate(96,73)"/>
<path d="M0 0 C2.0625 0.4375 2.0625 0.4375 4 1 C3.5359375 1.928125 3.5359375 1.928125 3.0625 2.875 C1.5960722 7.18802294 1.33380974 11.4759996 1 16 C0.34 15.34 -0.32 14.68 -1 14 C-1 12.68 -1 11.36 -1 10 C-1.66 10 -2.32 10 -3 10 C-2.69201674 8.51988629 -2.378482 7.04092675 -2.0625 5.5625 C-1.88847656 4.73878906 -1.71445313 3.91507813 -1.53515625 3.06640625 C-1 1 -1 1 0 0 Z " fill="#1C354D" transform="translate(99,134)"/>
<path d="M0 0 C0.66 0.33 1.32 0.66 2 1 C1.70703125 3.05078125 1.4140625 5.1015625 1.12109375 7.15234375 C1.08113281 7.76207031 1.04117188 8.37179688 1 9 C1.33 9.33 1.66 9.66 2 10 C1.71269945 12.33944736 1.38063221 14.6739143 1 17 C0.01 17.33 -0.98 17.66 -2 18 C-3.04894965 13.37350684 -2.82806355 10.18102877 -1.5625 5.625 C-1.27503906 4.56539062 -0.98757812 3.50578125 -0.69140625 2.4140625 C-0.46324219 1.61742187 -0.23507813 0.82078125 0 0 Z " fill="#16365A" transform="translate(95,145)"/>
<path d="M0 0 C1.98 0 3.96 0 6 0 C6 2.31 6 4.62 6 7 C0.25 7.125 0.25 7.125 -2 6 C-1.34 4.02 -0.68 2.04 0 0 Z " fill="#F8FBF8" transform="translate(125,129)"/>
<path d="M0 0 C0.66 0 1.32 0 2 0 C2.50512244 1.60256108 3.00391627 3.20711792 3.5 4.8125 C3.7784375 5.70582031 4.056875 6.59914062 4.34375 7.51953125 C5 10 5 10 5 13 C4.34 13 3.68 13 3 13 C2.67 13.66 2.34 14.32 2 15 C-0.07525903 12.50968916 -1.00649557 10.70910026 -0.9765625 7.44140625 C-0.71469818 4.94661777 -0.39910051 2.47634651 0 0 Z " fill="#072C4E" transform="translate(96,144)"/>
<path d="M0 0 C0.33 0.66 0.66 1.32 1 2 C-0.32 2.33 -1.64 2.66 -3 3 C-3 3.66 -3 4.32 -3 5 C-7.95 4.67 -12.9 4.34 -18 4 C-18 3.67 -18 3.34 -18 3 C-14.37 3 -10.74 3 -7 3 C-7.33 2.01 -7.66 1.02 -8 0 C-4.97878489 -0.97110486 -2.99536737 -1.13617383 0 0 Z " fill="#042A4F" transform="translate(127,49)"/>
<path d="M0 0 C0.99 0.66 1.98 1.32 3 2 C1.6711512 4.65769761 0.79333323 4.98178498 -2 6 C-4.62426505 6.13958857 -7.13292747 6.18931369 -9.75 6.125 C-10.44738281 6.11597656 -11.14476562 6.10695312 -11.86328125 6.09765625 C-13.57566958 6.07419888 -15.28788004 6.03833104 -17 6 C-17.33 5.34 -17.66 4.68 -18 4 C-17.11957031 3.96261719 -16.23914063 3.92523438 -15.33203125 3.88671875 C-13.58986328 3.78810547 -13.58986328 3.78810547 -11.8125 3.6875 C-10.66394531 3.62949219 -9.51539063 3.57148438 -8.33203125 3.51171875 C-4.85319896 2.97745494 -2.85468362 2.0052674 0 0 Z " fill="#062747" transform="translate(165,162)"/>
<path d="M0 0 C1.485 0.99 1.485 0.99 3 2 C3.66 2 4.32 2 5 2 C5 5.3 5 8.6 5 12 C0.68393782 9.09326425 0.68393782 9.09326425 -1 7 C-0.875 3.1875 -0.875 3.1875 0 0 Z " fill="#072C50" transform="translate(107,91)"/>
<path d="M0 0 C1.32 0.33 2.64 0.66 4 1 C3.01 1.495 3.01 1.495 2 2 C1.97303991 4.7708983 1.95318048 7.5415345 1.9375 10.3125 C1.92912109 11.09818359 1.92074219 11.88386719 1.91210938 12.69335938 C1.90888672 13.45068359 1.90566406 14.20800781 1.90234375 14.98828125 C1.89710693 15.68477783 1.89187012 16.38127441 1.88647461 17.09887695 C1.93104009 19.22497968 1.93104009 19.22497968 3 22 C3.99 22.33 4.98 22.66 6 23 C4.02 23.99 4.02 23.99 2 25 C-0.20192224 21.69711664 -0.23959968 20.72537273 -0.1953125 16.89453125 C-0.18886719 15.91162109 -0.18242187 14.92871094 -0.17578125 13.91601562 C-0.15902344 12.89185547 -0.14226562 11.86769531 -0.125 10.8125 C-0.11597656 9.77673828 -0.10695312 8.74097656 -0.09765625 7.67382812 C-0.0740786 5.11565315 -0.0411703 2.55794252 0 0 Z " fill="#16334B" transform="translate(148,134)"/>
<path d="M0 0 C5.94 0 11.88 0 18 0 C18 0.33 18 0.66 18 1 C12.39 1 6.78 1 1 1 C1 2.65 1 4.3 1 6 C2.98 6.495 2.98 6.495 5 7 C4.67 8.65 4.34 10.3 4 12 C2 10.5 2 10.5 0 8 C0 5.36 0 2.72 0 0 Z " fill="#4E677F" transform="translate(47,128)"/>
<path d="M0 0 C0.33 1.65 0.66 3.3 1 5 C-2.4815554 5.09947301 -5.6322481 4.93548664 -9 4 C-9.33 3.34 -9.66 2.68 -10 2 C-3.375 0 -3.375 0 0 0 Z M-14 3 C-12.68 3.66 -11.36 4.32 -10 5 C-10.33 5.66 -10.66 6.32 -11 7 C-12.65 7 -14.3 7 -16 7 C-15.01 6.67 -14.02 6.34 -13 6 C-13.33 5.01 -13.66 4.02 -14 3 Z " fill="#EFF5F8" transform="translate(106,97)"/>
<path d="M0 0 C0.99 0.33 1.98 0.66 3 1 C2.01 1.66 1.02 2.32 0 3 C0.33 4.98 0.66 6.96 1 9 C-1.97 8.67 -4.94 8.34 -8 8 C-5.6166139 4.85052551 -3.44915025 2.0027324 0 0 Z " fill="#0B294B" transform="translate(150,61)"/>
<path d="M0 0 C1.45047396 2.90094791 0.45356803 4.55972596 -0.4375 7.625 C-0.72496094 8.62789062 -1.01242188 9.63078125 -1.30859375 10.6640625 C-1.65083984 11.82035156 -1.65083984 11.82035156 -2 13 C-2.46019531 12.37351563 -2.92039062 11.74703125 -3.39453125 11.1015625 C-4.91953249 8.99546555 -4.91953249 8.99546555 -6.6875 7.375 C-8 6 -8 6 -8 4 C-5.69 4 -3.38 4 -1 4 C-0.67 2.68 -0.34 1.36 0 0 Z " fill="#E2E8F0" transform="translate(73,148)"/>
<path d="M0 0 C4.95 0 9.9 0 15 0 C15 0.33 15 0.66 15 1 C10.38 1 5.76 1 1 1 C1 1.66 1 2.32 1 3 C2.65 2.67 4.3 2.34 6 2 C6.33 2.66 6.66 3.32 7 4 C6.67 4.33 6.34 4.66 6 5 C6.33 5.66 6.66 6.32 7 7 C6.34 7.66 5.68 8.32 5 9 C5 8.34 5 7.68 5 7 C3.35 6.67 1.7 6.34 0 6 C0 4.02 0 2.04 0 0 Z " fill="#C0CBD6" transform="translate(86,128)"/>
<path d="M0 0 C1.32 0 2.64 0 4 0 C4.99 3.96 5.98 7.92 7 12 C6.01 12.495 6.01 12.495 5 13 C5 12.01 5 11.02 5 10 C4.01 9.67 3.02 9.34 2 9 C2.66 8.67 3.32 8.34 4 8 C3.505 7.566875 3.01 7.13375 2.5 6.6875 C1 5 1 5 1 2 C0.34 1.67 -0.32 1.34 -1 1 C-0.67 0.67 -0.34 0.34 0 0 Z " fill="#0C2E4F" transform="translate(51,150)"/>
<path d="M0 0 C0.99 0.33 1.98 0.66 3 1 C3 1.66 3 2.32 3 3 C3.66 3 4.32 3 5 3 C6 6 6 6 5.0625 8.1875 C4.5365625 9.0846875 4.5365625 9.0846875 4 10 C3.34 9.01 2.68 8.02 2 7 C0.35 7.66 -1.3 8.32 -3 9 C-3 7.68 -3 6.36 -3 5 C-2.01 5 -1.02 5 0 5 C0 3.35 0 1.7 0 0 Z " fill="#183853" transform="translate(65,129)"/>
<path d="M0 0 C0.99 1.32 1.98 2.64 3 4 C1.84826645 6.46800047 0.95216435 8.04783565 -1 10 C-2.32 9.01 -3.64 8.02 -5 7 C-3.35 4.69 -1.7 2.38 0 0 Z " fill="#E0ECF2" transform="translate(89,71)"/>
<path d="M0 0 C1.24007812 0.09667969 2.48015625 0.19335938 3.7578125 0.29296875 C6.875 0.8125 6.875 0.8125 8.875 2.8125 C2.275 2.8125 -4.325 2.8125 -11.125 2.8125 C-6.52242667 -0.63942999 -5.49985612 -0.48798306 0 0 Z " fill="#092A49" transform="translate(150.125,50.1875)"/>
<path d="M0 0 C0.99 0.33 1.98 0.66 3 1 C2.67 1.66 2.34 2.32 2 3 C3.65 3.33 5.3 3.66 7 4 C3.46588679 6.12046792 0.05606165 6.53199289 -4 7 C-4.33 6.01 -4.66 5.02 -5 4 C-2.6875 1.9375 -2.6875 1.9375 0 0 Z " fill="#06294C" transform="translate(99,49)"/>
<path d="M0 0 C0.99 0 1.98 0 3 0 C4.04625409 1.29735507 5.04701223 2.63266972 6 4 C6.66 4.33 7.32 4.66 8 5 C8 6.65 8 8.3 8 10 C7.01 9.67 6.02 9.34 5 9 C5.33 8.67 5.66 8.34 6 8 C5.401875 7.95875 4.80375 7.9175 4.1875 7.875 C2 7 2 7 0.25 3.9375 C-0.1625 2.968125 -0.575 1.99875 -1 1 C-0.67 0.67 -0.34 0.34 0 0 Z " fill="#FAFCFD" transform="translate(62,152)"/>
<path d="M0 0 C0.99 0 1.98 0 3 0 C3.33 1.98 3.66 3.96 4 6 C0.37673261 7.2077558 -0.64146369 6.54311128 -4 5 C-2.1875 2.5 -2.1875 2.5 0 0 Z " fill="#062B4E" transform="translate(115,113)"/>
<path d="M0 0 C0.70125 0.61875 1.4025 1.2375 2.125 1.875 C5.05777181 4.0427009 7.51182406 5.02655555 11 6 C7.54754176 8.30163882 6.05261287 8.34490322 2 8 C0 6 0 6 -0.125 2.875 C-0.08375 1.92625 -0.0425 0.9775 0 0 Z " fill="#172F47" transform="translate(120,89)"/>
<path d="M0 0 C2.39763185 2.39763185 2.34280586 3.33273498 2.625 6.625 C2.69976562 7.44226563 2.77453125 8.25953125 2.8515625 9.1015625 C2.92503906 10.04128906 2.92503906 10.04128906 3 11 C1.35 11.33 -0.3 11.66 -2 12 C-1 3.42857143 -1 3.42857143 0 0 Z " fill="#0E2844" transform="translate(74,146)"/>
<path d="M0 0 C0.66 1.65 1.32 3.3 2 5 C0.35 6.32 -1.3 7.64 -3 9 C-3.66 7.02 -4.32 5.04 -5 3 C-2.25 0 -2.25 0 0 0 Z " fill="#DFEFF6" transform="translate(149,69)"/>
<path d="M0 0 C-1.75 3.875 -1.75 3.875 -4 5 C-5.13350534 7.01669827 -5.13350534 7.01669827 -6 9 C-6.66 8.67 -7.32 8.34 -8 8 C-7.67 5.69 -7.34 3.38 -7 1 C-4 0 -4 0 0 0 Z " fill="#163859" transform="translate(78,156)"/>
<path d="M0 0 C1.9375 0.6875 1.9375 0.6875 4 2 C4.75 4.625 4.75 4.625 5 7 C4.01 7.33 3.02 7.66 2 8 C0.68 6.68 -0.64 5.36 -2 4 C-1.34 3.34 -0.68 2.68 0 2 C0 1.34 0 0.68 0 0 Z " fill="#D9E8EF" transform="translate(123,86)"/>
<path d="M0 0 C1.98 0.99 1.98 0.99 4 2 C4 2.33 4 2.66 4 3 C4.33 3.99 4.66 4.98 5 6 C4.360625 6.28875 3.72125 6.5775 3.0625 6.875 C0.84793921 7.82823451 0.84793921 7.82823451 0 10 C0 6.7 0 3.4 0 0 Z M5 2 C7 3 7 3 7 3 Z " fill="#042547" transform="translate(111,142)"/>
<path d="M0 0 C2.97 0 5.94 0 9 0 C8.34 1.32 7.68 2.64 7 4 C4.69 3.67 2.38 3.34 0 3 C0 2.01 0 1.02 0 0 Z " fill="#062B4B" transform="translate(91,95)"/>
<path d="M0 0 C3.63 0 7.26 0 11 0 C9.375 2 9.375 2 7 4 C3.75 4.25 3.75 4.25 1 4 C0.67 2.68 0.34 1.36 0 0 Z " fill="#F4FAFD" transform="translate(126,90)"/>
<path d="M0 0 C1.2065625 0.0309375 1.2065625 0.0309375 2.4375 0.0625 C1.7775 2.3725 1.1175 4.6825 0.4375 7.0625 C0.1075 6.4025 -0.2225 5.7425 -0.5625 5.0625 C-2.2125 5.0625 -3.8625 5.0625 -5.5625 5.0625 C-3.15007962 0.07683121 -3.15007962 0.07683121 0 0 Z " fill="#2B445E" transform="translate(129.5625,75.9375)"/>
<path d="M0 0 C1.32 0.99 2.64 1.98 4 3 C3.67 4.65 3.34 6.3 3 8 C2.34 7.34 1.68 6.68 1 6 C-0.32 6 -1.64 6 -3 6 C-1.125 1.125 -1.125 1.125 0 0 Z " fill="#D4E6F0" transform="translate(78,69)"/>
<path d="M0 0 C6.93 0.495 6.93 0.495 14 1 C12 3 12 3 8.9609375 3.1953125 C7.77757813 3.17210937 6.59421875 3.14890625 5.375 3.125 C4.18648438 3.10695312 2.99796875 3.08890625 1.7734375 3.0703125 C0.85820313 3.04710937 -0.05703125 3.02390625 -1 3 C-0.67 2.01 -0.34 1.02 0 0 Z " fill="#062846" transform="translate(72,50)"/>
<path d="M0 0 C0.66 0 1.32 0 2 0 C2.33 0.66 2.66 1.32 3 2 C3.99 2.66 4.98 3.32 6 4 C2.68929162 5.00109515 -0.30084769 5.10356134 -3.75 5.0625 C-4.73484375 5.05347656 -5.7196875 5.04445312 -6.734375 5.03515625 C-7.48203125 5.02355469 -8.2296875 5.01195312 -9 5 C-5.99112219 3.41841038 -3.36327963 2.56054661 0 2 C0 1.34 0 0.68 0 0 Z " fill="#D9E8F0" transform="translate(121,161)"/>
<path d="M0 0 C0.33 0.99 0.66 1.98 1 3 C-3.30769231 7.92307692 -3.30769231 7.92307692 -6.8125 8.3125 C-7.534375 8.209375 -8.25625 8.10625 -9 8 C-7.1875 6 -7.1875 6 -5 4 C-4.01 4 -3.02 4 -2 4 C-1.34 2.68 -0.68 1.36 0 0 Z " fill="#324A62" transform="translate(137,82)"/>
<path d="M0 0 C0.268125 0.61875 0.53625 1.2375 0.8125 1.875 C1.95556848 4.2995233 1.95556848 4.2995233 5 6 C3.02 6.33 1.04 6.66 -1 7 C-1.99 5.35 -2.98 3.7 -4 2 C-2.68 1.34 -1.36 0.68 0 0 Z " fill="#F1F8F9" transform="translate(82,93)"/>
<path d="M0 0 C0.99 0.33 1.98 0.66 3 1 C2.67 4.96 2.34 8.92 2 13 C1.34 13 0.68 13 0 13 C0 8.71 0 4.42 0 0 Z " fill="#08213E" transform="translate(106,76)"/>
<path d="M0 0 C0.33 0.99 0.66 1.98 1 3 C1.66 3 2.32 3 3 3 C2.67 6.3 2.34 9.6 2 13 C0 11 0 11 -0.1953125 8.3984375 C-0.17210937 7.40070313 -0.14890625 6.40296875 -0.125 5.375 C-0.10695312 4.37210937 -0.08890625 3.36921875 -0.0703125 2.3359375 C-0.04710937 1.56507812 -0.02390625 0.79421875 0 0 Z " fill="#09254A" transform="translate(153,77)"/>
<path d="M0 0 C5 2 5 2 10 4 C9.67 4.99 9.34 5.98 9 7 C5.07353523 5.69117841 2.72225079 4.1255472 0 1 C0 0.67 0 0.34 0 0 Z " fill="#DDECF4" transform="translate(102,158)"/>
<path d="M0 0 C2 3 2 3 1.8125 6.5 C0.99321626 10.02922225 0.5603063 10.73644079 -2 13 C-1.85769192 11.58297487 -1.71099254 10.1663904 -1.5625 8.75 C-1.48128906 7.96109375 -1.40007812 7.1721875 -1.31640625 6.359375 C-1.02365007 4.17635361 -0.57935581 2.1226818 0 0 Z " fill="#DAEBF4" transform="translate(71,131)"/>
<path d="M0 0 C0.99 0.33 1.98 0.66 3 1 C3 3.64 3 6.28 3 9 C2.01 8.67 1.02 8.34 0 8 C0 5.36 0 2.72 0 0 Z " fill="#082247" transform="translate(80,79)"/>
<path d="M0 0 C0.99 0.33 1.98 0.66 3 1 C3 1.99 3 2.98 3 4 C4.9375006 6.18777466 4.9375006 6.18777466 7 8 C2.25 7.25 2.25 7.25 0 5 C-0.125 2.375 -0.125 2.375 0 0 Z " fill="#0F2B46" transform="translate(124,81)"/>
<path d="M0 0 C1.32 0.66 2.64 1.32 4 2 C3.34 2 2.68 2 2 2 C2 2.66 2 3.32 2 4 C2.99 4.66 3.98 5.32 5 6 C3.35 6.66 1.7 7.32 0 8 C-1.125 6.25 -1.125 6.25 -2 4 C-1.125 1.75 -1.125 1.75 0 0 Z " fill="#194466" transform="translate(67,48)"/>
<path d="M0 0 C0.99 1.32 1.98 2.64 3 4 C2.34 5.32 1.68 6.64 1 8 C-0.32 7.67 -1.64 7.34 -3 7 C-2.01 4.69 -1.02 2.38 0 0 Z " fill="#EEF4F4" transform="translate(111,154)"/>
<path d="M0 0 C-2.71182212 2.60334924 -3.89133813 2.99456691 -7.75 3.1875 C-8.8225 3.125625 -9.895 3.06375 -11 3 C-11.33 2.34 -11.66 1.68 -12 1 C-3.96428571 -1.27678571 -3.96428571 -1.27678571 0 0 Z " fill="#C7D5E1" transform="translate(106,55)"/>
<path d="M0 0 C2.29633824 3.44450737 2.54016485 5.93812283 3 10 C2.01 10.66 1.02 11.32 0 12 C-1.125 6.25 -1.125 6.25 0 4 C0 2.68 0 1.36 0 0 Z " fill="#DCE3EB" transform="translate(81,136)"/>
<path d="M0 0 C1.9375 0.3125 1.9375 0.3125 4 1 C4.33 1.99 4.66 2.98 5 4 C4.34 4 3.68 4 3 4 C2.67 4.66 2.34 5.32 2 6 C1.01 6 0.02 6 -1 6 C-0.67 4.02 -0.34 2.04 0 0 Z " fill="#04305A" transform="translate(114,149)"/>
<path d="M0 0 C2.97 0 5.94 0 9 0 C5 2 5 2 2 3 C2 3.66 2 4.32 2 5 C1.01 4.67 0.02 4.34 -1 4 C-0.67 2.68 -0.34 1.36 0 0 Z " fill="#072649" transform="translate(123,141)"/>
<path d="M0 0 C0.33 0.66 0.66 1.32 1 2 C3.01669827 3.13350534 3.01669827 3.13350534 5 4 C2.09399739 5.25664978 0.20395416 6 -3 6 C-3 4.68 -3 3.36 -3 2 C-2.01 1.34 -1.02 0.68 0 0 Z " fill="#244460" transform="translate(101,93)"/>
<path d="M0 0 C0.66 0 1.32 0 2 0 C2.125 2.875 2.125 2.875 2 6 C1.34 6.66 0.68 7.32 0 8 C-0.99 7.67 -1.98 7.34 -3 7 C-2.01 4.69 -1.02 2.38 0 0 Z " fill="#1E3B58" transform="translate(152,88)"/>
<path d="M0 0 C3.16115776 1.36983503 3.9927092 1.9890638 6 5 C4.02 5 2.04 5 0 5 C-0.33 4.01 -0.66 3.02 -1 2 C-0.67 1.34 -0.34 0.68 0 0 Z " fill="#082B4C" transform="translate(104,108)"/>
<path d="M0 0 C0.99 1.32 1.98 2.64 3 4 C2.67 4.66 2.34 5.32 2 6 C-0.5625 6.625 -0.5625 6.625 -3 7 C-3.33 6.34 -3.66 5.68 -4 5 C-3.01 5 -2.02 5 -1 5 C-0.67 3.35 -0.34 1.7 0 0 Z " fill="#E1EAF2" transform="translate(80,88)"/>
<path d="M0 0 C0.33 0 0.66 0 1 0 C1.24954005 1.43410368 1.47392642 2.87260072 1.6875 4.3125 C1.81511719 5.11300781 1.94273438 5.91351563 2.07421875 6.73828125 C2 9 2 9 0.51953125 10.79296875 C0.01808594 11.19128906 -0.48335938 11.58960937 -1 12 C-1.66 10.35 -2.32 8.7 -3 7 C-2.34 7 -1.68 7 -1 7 C-0.67 4.69 -0.34 2.38 0 0 Z " fill="#3C516B" transform="translate(83,80)"/>
<path d="M0 0 C0.66 0.33 1.32 0.66 2 1 C1.67 3.31 1.34 5.62 1 8 C0.34 8 -0.32 8 -1 8 C-1 7.01 -1 6.02 -1 5 C-1.66 4.67 -2.32 4.34 -3 4 C-2.34 3.67 -1.68 3.34 -1 3 C-0.67 2.01 -0.34 1.02 0 0 Z " fill="#033362" transform="translate(155,72)"/>
<path d="M0 0 C0.66 0 1.32 0 2 0 C2.33 1.32 2.66 2.64 3 4 C1.35 5.32 -0.3 6.64 -2 8 C-2 4.23312136 -1.76462683 3.08809695 0 0 Z " fill="#0E3862" transform="translate(152,59)"/>
<path d="M0 0 C1.875 0.25 1.875 0.25 4 1 C5.25 3.0625 5.25 3.0625 6 5 C4.35 4.67 2.7 4.34 1 4 C0.67 2.68 0.34 1.36 0 0 Z " fill="#12324B" transform="translate(67,56)"/>
<path d="M0 0 C3.3 0.33 6.6 0.66 10 1 C8 3 8 3 6.0546875 3.1953125 C4.03645833 3.13020833 2.01822917 3.06510417 0 3 C0 2.01 0 1.02 0 0 Z " fill="#092646" transform="translate(125,165)"/>
<path d="M0 0 C1.485 0.99 1.485 0.99 3 2 C3 2.66 3 3.32 3 4 C3.99 4.33 4.98 4.66 6 5 C4.02 5.99 4.02 5.99 2 7 C0 4 0 4 0 0 Z " fill="#223D56" transform="translate(148,152)"/>
<path d="M0 0 C0.99 0.33 1.98 0.66 3 1 C2.67 3.31 2.34 5.62 2 8 C1.34 8 0.68 8 0 8 C-0.38063221 5.6739143 -0.71269945 3.33944736 -1 1 C-0.67 0.67 -0.34 0.34 0 0 Z " fill="#223851" transform="translate(65,144)"/>
<path d="M0 0 C0.33 0.66 0.66 1.32 1 2 C1.66 2 2.32 2 3 2 C4 5 4 5 3.0625 7.1875 C2.5365625 8.0846875 2.5365625 8.0846875 2 9 C0.50178941 5.62902617 0 3.79557881 0 0 Z " fill="#103458" transform="translate(67,130)"/>
<path d="M0 0 C1.32 0 2.64 0 4 0 C4 0.66 4 1.32 4 2 C0.36576791 4.32590854 -2.77088331 4.16265833 -7 4 C-7 3.67 -7 3.34 -7 3 C-5.02 3 -3.04 3 -1 3 C-0.67 2.01 -0.34 1.02 0 0 Z " fill="#CFDBE5" transform="translate(134,91)"/>
<path d="M0 0 C0 3.3 0 6.6 0 10 C-3.375 5.5 -3.375 5.5 -3 1 C-1 0 -1 0 0 0 Z " fill="#224161" transform="translate(147,78)"/>
<path d="M0 0 C0.75 1.75 0.75 1.75 1 4 C-0.9375 6.25 -0.9375 6.25 -3 8 C-3.66 7.67 -4.32 7.34 -5 7 C-3.68221547 4.36443095 -1.85780102 2.27730447 0 0 Z " fill="#103461" transform="translate(172,153)"/>
<path d="M0 0 C0.99 0.99 1.98 1.98 3 3 C2.34 3.66 1.68 4.32 1 5 C1 4.34 1 3.68 1 3 C0.34 3 -0.32 3 -1 3 C-1 3.99 -1 4.98 -1 6 C-1.66 6 -2.32 6 -3 6 C-2.625 3.5625 -2.625 3.5625 -2 1 C-1.34 0.67 -0.68 0.34 0 0 Z " fill="#042747" transform="translate(66,135)"/>
<path d="M0 0 C1.65 0 3.3 0 5 0 C5.625 1.875 5.625 1.875 6 4 C5.34 4.66 4.68 5.32 4 6 C3.67 5.01 3.34 4.02 3 3 C2.01 3 1.02 3 0 3 C0 2.01 0 1.02 0 0 Z " fill="#173550" transform="translate(84,134)"/>
<path d="M0 0 C0.66 0.33 1.32 0.66 2 1 C2 2.32 2 3.64 2 5 C1.34 5 0.68 5 0 5 C-0.33 5.99 -0.66 6.98 -1 8 C-1.33 8 -1.66 8 -2 8 C-2 6.35 -2 4.7 -2 3 C-1.34 3 -0.68 3 0 3 C0 2.01 0 1.02 0 0 Z " fill="#0C2B51" transform="translate(83,128)"/>
<path d="M0 0 C2.64 0.66 5.28 1.32 8 2 C8 2.33 8 2.66 8 3 C5.69 3.33 3.38 3.66 1 4 C0.67 2.68 0.34 1.36 0 0 Z " fill="#042B4C" transform="translate(88,104)"/>
<path d="M0 0 C0.66 0.33 1.32 0.66 2 1 C1.67 3.64 1.34 6.28 1 9 C0.01 8.01 -0.98 7.02 -2 6 C-1.34 4.02 -0.68 2.04 0 0 Z " fill="#EBF1F7" transform="translate(123,75)"/>
<path d="M0 0 C0.33 1.32 0.66 2.64 1 4 C0.01 3.67 -0.98 3.34 -2 3 C-2 3.99 -2 4.98 -2 6 C-2.66 6 -3.32 6 -4 6 C-4 4.35 -4 2.7 -4 1 C-2.68 0.67 -1.36 0.34 0 0 Z " fill="#F7FBFD" transform="translate(79,74)"/>
<path d="M0 0 C2.2477975 2.05233685 3.0022242 3.00667261 4 6 C2.35 6.33 0.7 6.66 -1 7 C-0.67 6.01 -0.34 5.02 0 4 C0 2.68 0 1.36 0 0 Z " fill="#183C5F" transform="translate(142,71)"/>
<path d="M0 0 C0.66 0.33 1.32 0.66 2 1 C1.34 3.31 0.68 5.62 0 8 C-0.99 7.67 -1.98 7.34 -3 7 C-1.125 2.25 -1.125 2.25 0 0 Z " fill="#FAFBFE" transform="translate(88,149)"/>
<path d="M0 0 C0.99 0 1.98 0 3 0 C3 1.65 3 3.3 3 5 C1.68 4.67 0.36 4.34 -1 4 C-0.67 2.68 -0.34 1.36 0 0 Z " fill="#E9FCFC" transform="translate(62,129)"/>
<path d="M0 0 C2.97 1.98 2.97 1.98 6 4 C5.34 4.66 4.68 5.32 4 6 C1.375 5.625 1.375 5.625 -1 5 C-0.67 3.35 -0.34 1.7 0 0 Z " fill="#DDEBEE" transform="translate(83,93)"/>
<path d="M0 0 C2 1.375 2 1.375 4 3 C4 3.66 4 4.32 4 5 C3.01 5.33 2.02 5.66 1 6 C-0.0625 4.125 -0.0625 4.125 -1 2 C-0.67 1.34 -0.34 0.68 0 0 Z " fill="#0B2940" transform="translate(84,89)"/>
<path d="M0 0 C1.32 0 2.64 0 4 0 C3.34 1.32 2.68 2.64 2 4 C1.01 4 0.02 4 -1 4 C-1.33 3.34 -1.66 2.68 -2 2 C-1.34 2 -0.68 2 0 2 C0 1.34 0 0.68 0 0 Z " fill="#103351" transform="translate(85,71)"/>
<path d="M0 0 C1.32 0 2.64 0 4 0 C4 0.66 4 1.32 4 2 C4.66 2.33 5.32 2.66 6 3 C2.25 4.125 2.25 4.125 0 3 C0 2.01 0 1.02 0 0 Z " fill="#1E3959" transform="translate(90,52)"/>
</svg>
